<svg xmlns="http://www.w3.org/2000/svg" viewBox="0 0 1160.46 80.16"><defs><style>.beff270e-fd04-475b-8dec-dde1fbb55988{fill:#fff;stroke:#000;stroke-miterlimit:10;stroke-width:3px;}</style></defs><title>welcome</title><g id="635cf1eb-c349-454c-8bb1-6d1f33567362" data-name="圖層 2"><g id="cd1b1883-e2ff-40a8-bccf-5c8ae1f384a4" data-name="圖層 1"><path class="beff270e-fd04-475b-8dec-dde1fbb55988" d="M40,21.54a30.5,30.5,0,0,1,4.14-1.38,21.29,21.29,0,0,1,5.7-.78,20.63,20.63,0,0,1,8.4,1.5,6.57,6.57,0,0,1,4.08,4.38l2.46,9.18Q65.88,38.7,67,42.6t2.1,7.74q1,3.84,2,8h.6q1.08-7.32,1.92-14t1.56-13.08q.72-6.42,1.44-12.72T78,5.82A18.9,18.9,0,0,1,87.48,3.3a14.79,14.79,0,0,1,7.68,1.92Q98.4,7.14,98.4,11.7a72.93,72.93,0,0,1-.54,7.5q-.54,4.86-1.44,10.86t-2.1,12.6q-1.2,6.6-2.52,12.6T89.1,66.12a56,56,0,0,1-2.58,7.5,13.88,13.88,0,0,1-5.88,2.76,32.69,32.69,0,0,1-8.4,1.08A26.68,26.68,0,0,1,62.7,76Q58.8,74.46,58,71.7,56.4,66.9,54.6,60.3T50.76,45.78Q49.08,53.58,47.28,61T44,73.62a13.6,13.6,0,0,1-5.4,2.76,27.48,27.48,0,0,1-7.92,1.08A30.06,30.06,0,0,1,20.94,76q-4.38-1.5-5.7-4.26a41.58,41.58,0,0,1-2.34-6.42Q11.64,61,10.32,55.56T7.62,43.74Q6.24,37.38,5.1,31T3,18.6Q2,12.54,1.56,7.5A16.82,16.82,0,0,1,6.24,4.62,15.91,15.91,0,0,1,12.72,3.3a13.16,13.16,0,0,1,7.5,2q2.94,2,3.66,6.66,1.92,12.24,3.18,20.4t2,13.38q.78,5.22,1.14,8.1T31,58.38h.6q1.08-4.8,2-8.88t2-8.22q1-4.14,2.1-8.88T40,21.54Z"/><path class="beff270e-fd04-475b-8dec-dde1fbb55988" d="M109.92,14.94a11,11,0,0,1,3-8.16,11,11,0,0,1,8.16-3h39.6a14.36,14.36,0,0,1,1.5,3.48,15.52,15.52,0,0,1,.66,4.56q0,4.56-2,6.48a7.18,7.18,0,0,1-5.22,1.92H130.32V31.38h27a14.54,14.54,0,0,1,1.5,3.42,14.93,14.93,0,0,1,.66,4.5q0,4.56-1.92,6.48a7,7,0,0,1-5.16,1.92H130.32V60.3h30.84a14.36,14.36,0,0,1,1.5,3.48,15.52,15.52,0,0,1,.66,4.56q0,4.56-2,6.54a7.06,7.06,0,0,1-5.22,2h-35A10.36,10.36,0,0,1,109.92,65.7Z"/><path class="beff270e-fd04-475b-8dec-dde1fbb55988" d="M186.84,76.86A10.36,10.36,0,0,1,175.68,65.7v-62q1.32-.24,4.2-.66a38.28,38.28,0,0,1,5.52-.42,25,25,0,0,1,4.86.42,8.63,8.63,0,0,1,3.54,1.5,6.48,6.48,0,0,1,2.16,3,14.63,14.63,0,0,1,.72,5v47.4h27.48a15.73,15.73,0,0,1,1.56,3.54,14.88,14.88,0,0,1,.72,4.62q0,4.8-2,6.78a7.42,7.42,0,0,1-5.4,2Z"/><path class="beff270e-fd04-475b-8dec-dde1fbb55988" d="M270.72,18.42q-9.24,0-14.16,5.64t-4.92,16q0,10.44,5.46,16.08t14.7,5.64a23.24,23.24,0,0,0,8.34-1.32,57.28,57.28,0,0,0,6.54-3,11.92,11.92,0,0,1,3.18,4A12.33,12.33,0,0,1,291,66.9q0,4.92-5.46,8.34t-16.62,3.42a49,49,0,0,1-15.12-2.28,33.74,33.74,0,0,1-12.36-7,33.13,33.13,0,0,1-8.34-12A44.51,44.51,0,0,1,230,40,43.08,43.08,0,0,1,233,23.52a35,35,0,0,1,8-12.06A33.83,33.83,0,0,1,253,4,42,42,0,0,1,267.6,1.5q11,0,17.1,3.6t6.06,9.24a9.33,9.33,0,0,1-1.56,5.4,12.84,12.84,0,0,1-3.6,3.6,39,39,0,0,0-6.66-3.48A21.7,21.7,0,0,0,270.72,18.42Z"/><path class="beff270e-fd04-475b-8dec-dde1fbb55988" d="M297.36,40a43.53,43.53,0,0,1,2.94-16.56A33.38,33.38,0,0,1,320.34,4a45.55,45.55,0,0,1,29.88,0,34.78,34.78,0,0,1,12.06,7.38,33.9,33.9,0,0,1,8.1,12.06A43.53,43.53,0,0,1,373.32,40a44.81,44.81,0,0,1-2.88,16.62,33.55,33.55,0,0,1-8,12.12,34.06,34.06,0,0,1-12.06,7.38,44.1,44.1,0,0,1-15.12,2.52,43.17,43.17,0,0,1-15.12-2.58,33.72,33.72,0,0,1-12-7.5,34.66,34.66,0,0,1-7.92-12.12A44,44,0,0,1,297.36,40ZM319,40q0,10.92,4.44,16.32a15.9,15.9,0,0,0,23.88,0q4.44-5.4,4.44-16.32t-4.38-16.2a14.55,14.55,0,0,0-11.94-5.4,14.84,14.84,0,0,0-11.94,5.34Q319,29.1,319,40Z"/><path class="beff270e-fd04-475b-8dec-dde1fbb55988" d="M435.24,58.62a11.56,11.56,0,0,1-4,2.1,18.88,18.88,0,0,1-5.7.78,20.17,20.17,0,0,1-7.14-1.08,5.74,5.74,0,0,1-3.66-3.72q-3.36-10.56-5.52-17.1t-3.36-11.46h-.6q-.36,7.08-.54,12.9t-.24,11.34q-.06,5.52-.24,11.16T403.68,76a21.51,21.51,0,0,1-4.08,1,30.61,30.61,0,0,1-5,.42q-5.28,0-8.22-1.68t-2.94-6.12l3.48-61.2a11.48,11.48,0,0,1,4.2-3.36q3.24-1.8,9.12-1.8,6.36,0,10,2a11.71,11.71,0,0,1,5.28,6.42q1.08,2.88,2.34,6.6T420.3,26q1.26,4,2.46,7.86l2.16,7h.6q2.88-10.08,5.76-19.5t5.28-15.78A19.24,19.24,0,0,1,441.18,4a27.7,27.7,0,0,1,6.3-.66A22.76,22.76,0,0,1,457.08,5q3.72,1.74,4.32,5,.48,2.4,1,7.38t1.14,11.22q.6,6.24,1.2,13.2T465.9,55.2q.54,6.42.9,11.76t.48,8.22A15.68,15.68,0,0,1,463,76.92a24.78,24.78,0,0,1-5.7.54,17.06,17.06,0,0,1-7.68-1.56q-3.12-1.56-3.36-6.12-.72-13.08-.9-23.52t-.54-17.52h-.6q-1.2,4.68-3.48,11.76T435.24,58.62Z"/><path class="beff270e-fd04-475b-8dec-dde1fbb55988" d="M480.6,14.94a11,11,0,0,1,3-8.16,11,11,0,0,1,8.16-3h39.6a14.36,14.36,0,0,1,1.5,3.48,15.52,15.52,0,0,1,.66,4.56q0,4.56-2,6.48a7.18,7.18,0,0,1-5.22,1.92H501V31.38h27a14.54,14.54,0,0,1,1.5,3.42,14.93,14.93,0,0,1,.66,4.5q0,4.56-1.92,6.48a7,7,0,0,1-5.16,1.92H501V60.3h30.84a14.36,14.36,0,0,1,1.5,3.48,15.52,15.52,0,0,1,.66,4.56q0,4.56-2,6.54a7.06,7.06,0,0,1-5.22,2h-35A10.36,10.36,0,0,1,480.6,65.7Z"/><path class="beff270e-fd04-475b-8dec-dde1fbb55988" d="M567,20.58a15.54,15.54,0,0,1-1.56-3.6,15.85,15.85,0,0,1-.72-4.8q0-4.68,2.1-6.72a7.51,7.51,0,0,1,5.46-2H624.6A15.54,15.54,0,0,1,626.16,7a15.85,15.85,0,0,1,.72,4.8q0,4.68-2.1,6.72a7.51,7.51,0,0,1-5.46,2H606V76a33.32,33.32,0,0,1-4.14.72,44,44,0,0,1-5.58.36,25,25,0,0,1-4.86-.42,8.63,8.63,0,0,1-3.54-1.5,6.48,6.48,0,0,1-2.16-3,14.63,14.63,0,0,1-.72-5V20.58Z"/><path class="beff270e-fd04-475b-8dec-dde1fbb55988" d="M630.36,40a43.53,43.53,0,0,1,2.94-16.56A33.38,33.38,0,0,1,653.34,4a45.55,45.55,0,0,1,29.88,0,34.78,34.78,0,0,1,12.06,7.38,33.9,33.9,0,0,1,8.1,12.06A43.53,43.53,0,0,1,706.32,40a44.81,44.81,0,0,1-2.88,16.62,33.55,33.55,0,0,1-8,12.12,34.06,34.06,0,0,1-12.06,7.38,44.1,44.1,0,0,1-15.12,2.52,43.17,43.17,0,0,1-15.12-2.58,33.72,33.72,0,0,1-12-7.5,34.66,34.66,0,0,1-7.92-12.12A44,44,0,0,1,630.36,40ZM652,40q0,10.92,4.44,16.32a15.9,15.9,0,0,0,23.88,0q4.44-5.4,4.44-16.32t-4.38-16.2a14.55,14.55,0,0,0-11.94-5.4,14.84,14.84,0,0,0-11.94,5.34Q652,29.1,652,40Z"/><path class="beff270e-fd04-475b-8dec-dde1fbb55988" d="M739,20.58A15.54,15.54,0,0,1,737.4,17a15.85,15.85,0,0,1-.72-4.8q0-4.68,2.1-6.72a7.51,7.51,0,0,1,5.46-2h52.32A15.54,15.54,0,0,1,798.12,7a15.85,15.85,0,0,1,.72,4.8q0,4.68-2.1,6.72a7.51,7.51,0,0,1-5.46,2H778V76a33.32,33.32,0,0,1-4.14.72,44,44,0,0,1-5.58.36,25,25,0,0,1-4.86-.42,8.63,8.63,0,0,1-3.54-1.5,6.48,6.48,0,0,1-2.16-3,14.63,14.63,0,0,1-.72-5V20.58Z"/><path class="beff270e-fd04-475b-8dec-dde1fbb55988" d="M819.72,5.94a25.4,25.4,0,0,1,6.18-2.28,32.91,32.91,0,0,1,8.34-1.08,30,30,0,0,1,10.62,1.74q4.62,1.74,5.94,5.46Q853,16,855.48,24.3t5,17.1q2.52,8.82,4.92,17.4T869.64,74a9.91,9.91,0,0,1-4.32,2.7,20.53,20.53,0,0,1-6.84,1,21,21,0,0,1-4.86-.48,8.65,8.65,0,0,1-3.24-1.44,7.09,7.09,0,0,1-2-2.52,21.86,21.86,0,0,1-1.38-3.6l-2.16-8.28H823.08q-1,3.6-1.92,7.44t-1.92,7.44a30.48,30.48,0,0,1-3.54,1,20.74,20.74,0,0,1-4.5.42q-6.12,0-9.06-2.1a6.76,6.76,0,0,1-2.94-5.82,12.18,12.18,0,0,1,.48-3.36q.48-1.68,1.08-4,.84-3.24,2.34-8T806.4,44q1.8-5.58,3.84-11.46t3.84-11.1q1.8-5.22,3.3-9.3T819.72,5.94Zm14.4,15.48q-1.68,5-3.78,11.22t-3.78,12.54h14.88Q839.76,38.7,838,32.52t-3.18-11.1Z"/><path class="beff270e-fd04-475b-8dec-dde1fbb55988" d="M900.48,76a33.32,33.32,0,0,1-4.14.72,44,44,0,0,1-5.58.36,25,25,0,0,1-4.86-.42,8.63,8.63,0,0,1-3.54-1.5,6.48,6.48,0,0,1-2.16-3,14.63,14.63,0,0,1-.72-5V3.78q1.32-.24,4.2-.66a38.28,38.28,0,0,1,5.52-.42,25,25,0,0,1,4.86.42,8.63,8.63,0,0,1,3.54,1.5,6.48,6.48,0,0,1,2.16,3,14.63,14.63,0,0,1,.72,5Z"/><path class="beff270e-fd04-475b-8dec-dde1fbb55988" d="M949.68,21.54a30.5,30.5,0,0,1,4.14-1.38,21.29,21.29,0,0,1,5.7-.78,20.63,20.63,0,0,1,8.4,1.5A6.57,6.57,0,0,1,972,25.26l2.46,9.18q1.14,4.26,2.22,8.16t2.1,7.74q1,3.84,2,8h.6q1.08-7.32,1.92-14t1.56-13.08q.72-6.42,1.44-12.72t1.44-12.78A18.9,18.9,0,0,1,997.2,3.3a14.79,14.79,0,0,1,7.68,1.92q3.24,1.92,3.24,6.48a72.93,72.93,0,0,1-.54,7.5q-.54,4.86-1.44,10.86t-2.1,12.6q-1.2,6.6-2.52,12.6t-2.7,10.86a56,56,0,0,1-2.58,7.5,13.88,13.88,0,0,1-5.88,2.76,32.69,32.69,0,0,1-8.4,1.08,26.68,26.68,0,0,1-9.54-1.5q-3.9-1.5-4.74-4.26-1.56-4.8-3.36-11.4t-3.84-14.52Q958.8,53.58,957,61t-3.24,12.6a13.6,13.6,0,0,1-5.4,2.76,27.48,27.48,0,0,1-7.92,1.08,30.06,30.06,0,0,1-9.78-1.5q-4.38-1.5-5.7-4.26a41.58,41.58,0,0,1-2.34-6.42Q921.36,61,920,55.56t-2.7-11.82Q916,37.38,914.82,31t-2.1-12.42q-1-6.06-1.44-11.1A16.82,16.82,0,0,1,916,4.62a15.91,15.91,0,0,1,6.48-1.32,13.16,13.16,0,0,1,7.5,2q2.94,2,3.66,6.66,1.92,12.24,3.18,20.4t2,13.38q.78,5.22,1.14,8.1t.72,4.56h.6q1.08-4.8,2-8.88t2-8.22q1-4.14,2.1-8.88T949.68,21.54Z"/><path class="beff270e-fd04-475b-8dec-dde1fbb55988" d="M1033.32,5.94a25.4,25.4,0,0,1,6.18-2.28,32.86,32.86,0,0,1,8.34-1.08,30,30,0,0,1,10.62,1.74q4.61,1.74,5.94,5.46,2.16,6.24,4.68,14.52t5,17.1q2.52,8.82,4.92,17.4t4.2,15.18a9.91,9.91,0,0,1-4.32,2.7,20.53,20.53,0,0,1-6.84,1,21,21,0,0,1-4.86-.48,8.65,8.65,0,0,1-3.24-1.44,7.09,7.09,0,0,1-2-2.52,21,21,0,0,1-1.38-3.6l-2.16-8.28h-21.72c-.65,2.4-1.28,4.88-1.92,7.44s-1.28,5-1.92,7.44a31.06,31.06,0,0,1-3.54,1,20.87,20.87,0,0,1-4.5.42q-6.12,0-9.06-2.1a6.73,6.73,0,0,1-2.94-5.82,12.18,12.18,0,0,1,.48-3.36q.47-1.68,1.08-4,.82-3.24,2.34-8T1020,44c1.2-3.72,2.47-7.54,3.84-11.46s2.64-7.62,3.84-11.1,2.29-6.58,3.3-9.3S1032.76,7.38,1033.32,5.94Zm14.4,15.48-3.78,11.22q-2.1,6.18-3.78,12.54H1055q-1.69-6.48-3.42-12.66t-3.18-11.1Z"/><path class="beff270e-fd04-475b-8dec-dde1fbb55988" d="M1159,74a11.08,11.08,0,0,1-4.86,2.58,28.29,28.29,0,0,1-7.62.9,26.39,26.39,0,0,1-8.4-1.32q-4-1.32-6.48-6.36l-11.88-24.24q-1.8-3.72-3.24-7t-3.12-7.62l-.72.12q.46,6.48.54,13.2t.06,13.2V76a33.75,33.75,0,0,1-4,.72,40.48,40.48,0,0,1-5.34.36,27.15,27.15,0,0,1-4.68-.36,7.12,7.12,0,0,1-3.36-1.44,6.85,6.85,0,0,1-2-2.94,13.69,13.69,0,0,1-.72-4.86V7.5a10,10,0,0,1,5.16-3.6,22.67,22.67,0,0,1,7.44-1.2,26,26,0,0,1,8.46,1.38c2.68.92,4.81,3,6.42,6.3l12,24.24q1.8,3.72,3.24,7c1,2.2,2,4.74,3.12,7.62l.6-.12c-.32-4.32-.53-8.64-.6-13s-.12-8.64-.12-13V3.78a33.36,33.36,0,0,1,4-.72,40.37,40.37,0,0,1,5.34-.36c3.52,0,6.19.62,8,1.86S1159,8.38,1159,12.3Z"/></g></g></svg>